 <svg  version="1.0" xmlns="http://www.w3.org/2000/svg"  width="900.000000pt" height="810.000000pt" viewBox="0 0 900.000000 810.000000"  preserveAspectRatio="xMidYMid meet">  <g transform="translate(0.000000,810.000000) scale(0.100000,-0.100000)" fill="#0397d5" stroke="none"> <path d="M434 7945 c-10 -8 -31 -15 -45 -15 -15 0 -32 -7 -39 -15 -7 -8 -20 -15 -30 -15 -10 0 -23 -7 -30 -15 -7 -8 -18 -15 -24 -15 -18 0 -146 -126 -146 -143 0 -8 -7 -20 -15 -27 -8 -7 -15 -25 -15 -40 0 -15 -7 -33 -15 -40 -9 -8 -15 -30 -15 -60 0 -26 -7 -64 -15 -83 -22 -53 -22 -1258 0 -1392 9 -54 15 -159 15 -265 0 -122 5 -192 15 -230 9 -35 15 -102 15 -186 0 -91 5 -145 15 -174 9 -26 15 -78 15 -132 0 -56 5 -102 15 -125 8 -19 15 -66 15 -103 0 -37 7 -84 15 -103 8 -20 15 -58 15 -84 1 -26 7 -59 15 -73 8 -14 14 -46 15 -71 0 -25 7 -54 15 -65 8 -10 15 -35 15 -55 0 -19 7 -44 15 -55 8 -10 15 -33 15 -50 0 -16 7 -39 15 -50 8 -10 15 -31 15 -45 0 -15 7 -32 15 -39 8 -7 15 -23 15 -35 0 -12 7 -28 15 -35 8 -7 15 -20 15 -30 0 -10 7 -23 15 -30 8 -7 15 -20 15 -29 0 -9 5 -22 11 -28 13 -13 33 -47 48 -80 6 -13 15 -23 20 -23 5 0 11 -8 15 -17 10 -31 29 -55 121 -148 94 -94 165 -155 183 -155 6 0 15 -6 19 -12 9 -15 37 -33 71 -48 12 -5 22 -14 22 -20 0 -5 9 -10 19 -10 11 0 23 -4 26 -10 3 -5 31 -22 60 -36 30 -14 57 -29 60 -35 4 -5 17 -9 29 -9 13 0 29 -7 36 -15 7 -8 20 -15 30 -15 10 0 23 -7 30 -15 7 -8 23 -15 35 -15 12 0 28 -7 35 -15 7 -8 21 -15 32 -15 11 0 26 -7 34 -15 9 -8 26 -15 38 -15 13 0 29 -7 36 -15 7 -8 20 -15 30 -15 10 0 23 -7 30 -15 7 -8 23 -15 35 -15 12 0 28 -7 35 -15 7 -8 21 -15 32 -15 11 0 26 -7 34 -15 9 -8 26 -15 39 -15 12 0 25 -7 29 -15 3 -8 16 -15 29 -15 14 0 30 -7 37 -15 7 -8 22 -15 34 -15 25 -1 66 -33 66 -52 0 -7 -28 -35 -62 -63 -34 -27 -70 -58 -80 -67 -10 -10 -20 -18 -23 -18 -2 0 -21 -16 -41 -35 -19 -19 -56 -49 -80 -67 -24 -17 -44 -35 -44 -40 0 -4 -4 -8 -10 -8 -5 0 -25 -15 -43 -32 -19 -18 -60 -55 -92 -83 -67 -58 -215 -223 -215 -241 0 -7 -3 -14 -8 -16 -10 -4 -52 -65 -52 -76 0 -5 -7 -15 -15 -22 -8 -7 -15 -23 -15 -35 0 -12 -7 -28 -15 -35 -8 -7 -15 -25 -15 -40 0 -15 -7 -33 -15 -40 -9 -8 -15 -30 -15 -60 0 -26 -7 -64 -15 -83 -19 -45 -19 -149 0 -202 8 -22 15 -63 15 -91 0 -34 5 -56 15 -64 8 -7 15 -27 15 -45 0 -18 7 -38 15 -45 8 -7 15 -23 15 -35 0 -12 7 -28 15 -35 8 -7 15 -23 15 -35 0 -12 7 -28 15 -35 8 -7 15 -18 15 -25 0 -7 7 -18 15 -25 8 -7 15 -21 15 -32 0 -10 7 -21 15 -24 8 -4 15 -13 15 -21 0 -8 13 -32 28 -52 16 -20 32 -44 35 -53 4 -10 11 -18 17 -18 5 0 10 -4 10 -9 0 -6 14 -25 30 -43 17 -18 30 -38 30 -46 0 -7 7 -15 15 -18 8 -4 15 -10 15 -16 0 -5 11 -19 24 -31 12 -12 42 -44 66 -72 78 -91 190 -205 268 -273 42 -37 82 -72 87 -78 19 -22 174 -134 184 -134 6 0 11 -5 11 -10 0 -6 11 -15 25 -20 14 -5 25 -14 25 -20 0 -5 8 -10 18 -10 10 0 23 -5 29 -11 12 -12 46 -33 80 -48 11 -5 24 -15 28 -20 3 -6 14 -11 24 -11 10 0 24 -7 31 -15 7 -8 23 -15 35 -15 12 0 28 -7 35 -15 7 -8 25 -15 40 -15 15 0 33 -7 40 -15 7 -8 27 -15 45 -15 18 0 38 -7 45 -15 8 -9 30 -15 59 -15 25 0 55 -7 65 -15 28 -21 429 -21 466 0 14 8 42 14 62 15 20 0 43 7 52 15 8 8 28 15 44 15 16 0 35 7 42 15 7 8 23 15 35 15 12 0 28 7 35 15 7 8 21 15 32 15 10 0 21 7 24 15 4 8 13 15 21 15 8 0 32 13 52 29 20 15 41 30 48 32 55 19 345 315 380 388 3 7 17 25 31 40 13 14 28 35 33 46 5 11 18 34 29 50 11 17 24 40 29 52 5 11 15 24 20 28 6 3 11 14 11 24 0 10 7 24 15 31 8 7 15 20 15 30 0 10 7 20 15 24 8 3 15 16 15 29 0 14 7 30 15 37 8 7 15 20 15 30 0 10 7 23 15 30 8 7 15 25 15 40 0 15 7 33 15 40 8 7 15 20 15 30 0 10 7 23 15 30 8 7 15 23 15 35 0 13 7 25 15 29 8 3 15 16 15 30 0 13 7 26 15 30 8 3 15 14 15 24 0 11 7 25 15 32 8 7 15 18 15 25 0 7 7 15 15 19 8 3 15 11 15 18 0 17 67 90 102 113 27 17 29 17 55 0 32 -20 103 -96 103 -109 0 -4 14 -25 30 -46 17 -21 30 -45 30 -54 0 -9 7 -19 15 -22 8 -4 15 -17 15 -30 0 -14 7 -27 15 -30 8 -4 15 -17 15 -30 0 -14 7 -27 15 -30 8 -4 15 -16 15 -29 0 -12 7 -28 15 -35 8 -7 15 -22 15 -34 0 -12 7 -31 15 -42 8 -10 15 -26 15 -35 0 -9 7 -22 15 -29 8 -7 15 -23 15 -37 0 -13 7 -26 15 -29 8 -4 15 -14 15 -24 0 -10 7 -23 15 -30 8 -7 15 -20 15 -29 0 -9 5 -22 11 -28 13 -13 33 -47 48 -80 6 -13 15 -23 21 -23 5 0 10 -9 10 -20 0 -11 7 -23 15 -26 8 -4 15 -13 15 -20 0 -8 6 -17 14 -20 8 -3 17 -13 20 -22 8 -24 25 -48 76 -106 96 -110 271 -274 304 -285 6 -2 27 -17 47 -32 20 -16 44 -29 53 -29 9 0 19 -7 22 -15 4 -8 14 -15 24 -15 10 0 23 -7 30 -15 7 -8 23 -15 35 -15 12 0 28 -7 35 -15 7 -8 24 -15 39 -15 14 0 35 -7 45 -15 11 -8 36 -15 55 -15 20 -1 47 -7 61 -15 37 -21 438 -21 466 0 10 8 40 15 65 15 25 0 54 7 65 15 10 8 31 15 46 15 15 0 33 7 42 15 8 8 26 15 39 15 14 0 30 7 37 15 7 8 23 15 35 15 12 0 28 7 35 15 7 8 20 15 29 15 9 0 22 5 28 11 12 12 46 33 80 48 11 5 24 15 28 20 3 6 15 11 26 11 10 0 19 5 19 10 0 6 10 15 23 20 28 12 58 32 72 46 15 16 92 74 98 74 6 0 55 45 206 185 107 99 244 251 319 353 25 34 49 62 54 62 4 0 8 7 8 15 0 8 5 15 10 15 6 0 13 8 17 18 3 9 19 33 35 53 15 20 28 44 28 52 0 8 7 17 15 21 8 3 15 14 15 24 0 11 7 25 15 32 8 7 15 18 15 25 0 7 7 18 15 25 8 7 15 21 15 32 0 11 7 26 15 34 8 9 15 24 15 35 0 11 7 27 15 35 8 9 15 27 15 42 0 15 7 36 15 46 8 11 15 38 15 60 0 23 7 50 15 60 21 28 21 300 0 336 -8 14 -15 41 -15 60 0 19 -7 44 -15 54 -8 11 -15 30 -15 42 0 12 -7 27 -15 34 -8 7 -15 21 -15 31 0 10 -5 21 -11 24 -5 4 -14 17 -20 28 -12 30 -29 54 -61 91 -16 17 -28 35 -28 41 0 6 -13 22 -30 35 -16 14 -29 28 -30 33 0 14 -125 128 -196 179 -24 17 -44 35 -44 39 0 3 -8 9 -17 13 -25 8 -57 29 -66 43 -4 7 -13 13 -18 13 -30 0 -229 174 -229 200 0 19 32 60 46 60 8 0 17 7 20 15 4 8 18 15 34 15 15 0 33 7 40 15 7 8 27 15 44 15 18 0 41 7 52 15 10 8 31 15 45 15 15 0 32 7 39 15 7 8 27 15 45 15 18 0 38 7 45 15 7 8 26 15 42 15 16 0 31 6 34 15 4 8 18 15 34 15 15 0 33 7 40 15 7 8 23 15 35 15 12 0 28 7 35 15 7 8 20 15 30 15 10 0 23 7 30 15 7 8 20 15 30 15 10 0 23 7 30 15 7 8 21 15 32 15 10 0 21 7 24 15 4 8 12 15 19 15 7 0 18 7 25 15 7 8 21 15 31 15 11 0 19 5 19 10 0 6 11 15 25 20 14 5 25 14 25 20 0 5 6 10 13 10 24 0 168 134 266 247 53 61 75 93 87 125 3 9 12 19 20 22 8 3 14 15 14 26 0 11 7 23 15 26 8 4 15 14 15 24 0 10 7 23 15 30 8 7 15 20 15 30 0 10 7 23 15 30 8 7 15 23 15 35 0 12 7 28 15 35 8 7 15 25 15 40 0 15 7 33 15 40 8 7 15 24 15 39 0 14 7 35 15 45 8 11 15 34 15 50 0 17 7 40 15 50 8 11 15 36 15 56 0 20 7 45 15 56 8 10 15 41 15 69 0 28 7 59 15 69 9 12 15 43 15 75 1 31 7 67 15 81 9 15 15 55 15 100 0 45 6 85 15 100 9 16 14 56 15 116 0 55 6 109 15 134 10 29 15 81 15 161 0 73 6 140 15 176 11 40 15 110 15 233 0 108 6 205 15 255 21 117 21 1278 0 1315 -8 14 -14 52 -15 86 0 42 -5 65 -15 74 -8 7 -15 27 -15 44 0 18 -7 41 -15 52 -8 10 -15 29 -15 40 0 12 -7 24 -15 28 -8 3 -15 15 -15 26 0 11 -7 23 -15 26 -8 4 -15 10 -15 16 0 12 -72 78 -86 78 -6 0 -17 7 -24 15 -7 8 -20 15 -30 15 -10 0 -23 7 -30 15 -7 8 -29 15 -49 15 -21 0 -46 7 -57 15 -28 21 -487 21 -524 0 -14 -8 -43 -14 -66 -15 -22 0 -49 -7 -60 -15 -10 -8 -32 -15 -49 -15 -16 0 -39 -7 -49 -15 -11 -8 -30 -15 -42 -15 -12 0 -27 -7 -34 -15 -7 -8 -25 -15 -40 -15 -15 0 -33 -7 -40 -15 -7 -8 -23 -15 -37 -15 -13 0 -26 -7 -29 -15 -4 -8 -17 -15 -30 -15 -14 0 -27 -7 -30 -15 -4 -8 -17 -15 -30 -15 -14 0 -27 -7 -30 -15 -4 -8 -14 -15 -23 -15 -9 0 -22 -5 -28 -11 -12 -12 -46 -33 -80 -48 -11 -5 -24 -15 -28 -20 -3 -6 -15 -11 -26 -11 -10 0 -19 -4 -19 -9 0 -10 -38 -34 -72 -47 -10 -3 -18 -10 -18 -15 0 -5 -10 -14 -22 -19 -31 -13 -55 -30 -92 -62 -17 -16 -36 -28 -44 -28 -7 0 -15 -7 -18 -15 -4 -8 -12 -15 -20 -15 -7 0 -17 -6 -21 -13 -9 -15 -88 -77 -97 -77 -4 0 -19 -12 -34 -27 -15 -16 -47 -43 -72 -62 -25 -19 -57 -47 -72 -63 -15 -15 -29 -28 -31 -28 -25 0 -563 -541 -692 -695 -84 -101 -118 -140 -124 -145 -4 -3 -28 -32 -53 -65 -26 -33 -60 -75 -77 -93 -17 -18 -31 -37 -31 -42 0 -4 -7 -10 -15 -14 -8 -3 -15 -11 -15 -19 0 -7 -13 -26 -28 -43 -37 -39 -92 -110 -92 -119 0 -4 -6 -13 -14 -19 -19 -16 -136 -173 -136 -183 0 -5 -12 -22 -27 -39 -34 -38 -52 -64 -59 -86 -3 -9 -12 -19 -20 -22 -8 -3 -14 -12 -14 -20 0 -7 -7 -16 -15 -20 -8 -3 -15 -10 -15 -17 0 -6 -13 -28 -30 -49 -17 -21 -30 -41 -30 -45 0 -4 -13 -24 -30 -45 -16 -21 -30 -41 -30 -45 0 -4 -12 -24 -27 -44 -37 -48 -52 -72 -59 -93 -3 -9 -12 -19 -20 -22 -8 -3 -14 -15 -14 -26 0 -11 -4 -20 -9 -20 -10 0 -34 -38 -47 -72 -3 -10 -10 -18 -15 -18 -5 0 -14 -10 -19 -22 -15 -34 -33 -62 -47 -71 -7 -4 -13 -15 -13 -22 0 -8 -5 -15 -10 -15 -6 0 -14 -9 -18 -19 -14 -38 -180 -221 -200 -221 -5 0 -15 -7 -22 -15 -17 -20 -103 -20 -120 0 -7 8 -16 15 -21 15 -11 0 -79 68 -79 79 0 5 -6 11 -13 14 -7 2 -22 23 -32 46 -11 22 -23 41 -28 41 -4 0 -12 10 -17 23 -6 12 -19 36 -30 52 -11 17 -24 39 -30 50 -6 11 -19 34 -30 50 -11 17 -24 39 -30 50 -6 11 -19 34 -30 50 -11 17 -24 40 -30 53 -5 12 -14 22 -20 22 -5 0 -10 9 -10 20 0 11 -6 23 -14 26 -8 3 -17 13 -20 22 -3 9 -15 31 -26 47 -11 17 -24 40 -30 53 -5 12 -14 22 -19 22 -5 0 -12 8 -15 18 -13 34 -37 72 -47 72 -5 0 -9 7 -9 15 0 9 -6 18 -14 21 -8 3 -17 13 -20 22 -7 22 -25 48 -58 86 -16 17 -28 35 -28 41 0 6 -14 25 -30 43 -17 18 -30 36 -30 39 0 6 -54 77 -79 105 -28 30 -37 43 -44 61 -3 9 -11 17 -17 17 -5 0 -10 4 -10 9 0 8 -34 51 -72 92 -10 11 -18 22 -18 27 0 4 -21 30 -47 59 -50 53 -106 119 -142 164 -99 127 -647 670 -780 774 -31 24 -71 57 -89 74 -18 17 -37 31 -43 31 -5 0 -9 4 -9 8 0 5 -27 28 -60 52 -33 24 -60 47 -60 52 0 4 -6 8 -14 8 -8 0 -16 7 -20 15 -3 8 -11 15 -18 15 -8 0 -28 14 -46 30 -18 17 -36 30 -38 30 -3 0 -32 20 -64 45 -32 25 -62 45 -65 45 -4 0 -24 12 -44 28 -48 36 -72 51 -93 58 -9 3 -19 12 -22 20 -3 8 -14 14 -25 14 -10 0 -21 7 -25 15 -3 8 -14 15 -25 15 -10 0 -21 7 -25 15 -3 8 -14 15 -25 15 -10 0 -21 7 -25 15 -3 8 -14 15 -24 15 -11 0 -25 7 -32 15 -7 8 -20 15 -30 15 -10 0 -20 7 -24 15 -3 8 -16 15 -30 15 -13 0 -26 7 -30 15 -3 8 -16 15 -30 15 -13 0 -26 7 -30 15 -3 8 -16 15 -29 15 -14 0 -30 7 -37 15 -7 8 -23 15 -35 15 -12 0 -28 7 -35 15 -7 8 -23 15 -35 15 -12 0 -28 7 -35 15 -7 8 -27 15 -45 15 -18 0 -38 7 -45 15 -7 8 -27 15 -44 15 -17 0 -40 7 -50 15 -11 8 -38 15 -60 15 -23 1 -52 7 -66 15 -37 21 -418 21 -446 0z"/> </g> </svg> 