<svg id="svg" xmlns="http://www.w3.org/2000/svg" xmlns:xlink="http://www.w3.org/1999/xlink" width="400" height="400" viewBox="0, 0, 400,400"><g id="svgg"><path id="path0" d="M6.089 34.569 C 0.221 41.640,-0.916 61.881,1.733 112.104 C 6.104 194.955,14.738 214.913,53.655 232.128 L 81.423 244.411 62.586 260.261 C 33.450 284.778,36.164 312.808,71.053 347.697 C 115.431 392.076,163.633 382.620,187.566 324.839 C 191.801 314.615,197.397 306.250,200.000 306.250 C 202.603 306.250,208.199 314.615,212.434 324.839 C 236.367 382.620,284.569 392.076,328.947 347.697 C 366.474 310.171,367.408 278.945,331.733 254.543 C 317.534 244.831,317.340 243.949,328.608 240.381 C 381.210 223.725,393.572 201.097,398.222 112.959 C 402.315 35.361,398.529 25.000,366.083 25.000 C 327.440 25.000,270.525 73.015,223.468 145.313 C 200.652 180.366,199.761 180.613,185.165 155.905 C 131.081 64.348,35.259 -0.578,6.089 34.569 " stroke="none" fill="#000000" fill-rule="evenodd"></path></g></svg>