<?xml version="1.0" encoding="UTF-8"?>
<svg version="1.1" xmlns="http://www.w3.org/2000/svg" width="67" height="67">
<path d="M0 0 C1.26714844 -0.01160156 2.53429688 -0.02320312 3.83984375 -0.03515625 C12.21537145 -0.00900996 19.66640471 0.29145596 26.375 5.6875 C31.71159867 12.43672773 31.96603855 17.97235709 31.875 26.3125 C31.88660156 27.37146484 31.89820313 28.43042969 31.91015625 29.52148438 C31.8834513 36.65615734 31.4708452 42.2293992 26.375 47.625 C18.59370922 52.36143787 11.0735032 52.79981813 2.125 52.625 C1.04605469 52.61984375 -0.03289063 52.6146875 -1.14453125 52.609375 C-9.03324083 52.53058639 -9.03324083 52.53058639 -12.5 51.375 C-12.00452457 53.83131001 -12.00452457 53.83131001 -10.5 56.375 C-3.04240583 60.70040462 4.29540795 59.54708458 12.5 58.375 C12.5 60.685 12.5 62.995 12.5 65.375 C7.6773378 67.8760087 3.04783709 67.70709259 -2.25 67.6875 C-3.1059375 67.70361328 -3.961875 67.71972656 -4.84375 67.73632812 C-11.72436349 67.74154071 -18.10825748 66.81245564 -23.8046875 62.71875 C-31.5621667 53.61046597 -31.99835299 43.18314326 -31.89111328 31.63012695 C-31.87488457 29.54768771 -31.89112121 27.46714996 -31.91015625 25.38476562 C-31.90817585 24.04166245 -31.90433638 22.69856043 -31.8984375 21.35546875 C-31.89505371 20.15817139 -31.89166992 18.96087402 -31.88818359 17.72729492 C-31.17261972 11.54779332 -28.29437752 7.23134713 -23.5 3.375 C-16.03541114 -0.35310437 -8.15844236 -0.07469581 0 0 Z M-16.375 14.75 C-19.19939227 18.23895516 -19.62411314 19.77221889 -19.59765625 24.1640625 C-19.59443359 25.10507812 -19.59121094 26.04609375 -19.58789062 27.015625 C-19.57951172 28.00046875 -19.57113281 28.9853125 -19.5625 30 C-19.55798828 30.99257813 -19.55347656 31.98515625 -19.54882812 33.0078125 C-19.53702145 35.4636016 -19.520554 37.91927104 -19.5 40.375 C-17.52 40.375 -15.54 40.375 -13.5 40.375 C-13.47494385 39.77437744 -13.4498877 39.17375488 -13.42407227 38.55493164 C-13.3084472 35.84888563 -13.18557064 33.14321717 -13.0625 30.4375 C-13.02318359 29.49197266 -12.98386719 28.54644531 -12.94335938 27.57226562 C-12.90146484 26.67314453 -12.85957031 25.77402344 -12.81640625 24.84765625 C-12.76141968 23.59867554 -12.76141968 23.59867554 -12.70532227 22.32446289 C-12.5 20.375 -12.5 20.375 -11.5 19.375 C-9.50041636 19.33419217 -7.49954746 19.33245644 -5.5 19.375 C-3.58697693 22.64113695 -3.14325339 25.36945248 -2.875 29.125 C-2.80023437 30.10984375 -2.72546875 31.0946875 -2.6484375 32.109375 C-2.59945313 32.85703125 -2.55046875 33.6046875 -2.5 34.375 C-0.85 34.375 0.8 34.375 2.5 34.375 C2.57347656 33.25351562 2.57347656 33.25351562 2.6484375 32.109375 C2.72320312 31.12453125 2.79796875 30.1396875 2.875 29.125 C2.94460937 28.15046875 3.01421875 27.1759375 3.0859375 26.171875 C3.48465249 23.47866811 4.13507063 21.70536721 5.5 19.375 C7.49954746 19.33245644 9.50041636 19.33419217 11.5 19.375 C13.08403524 20.95903524 12.71974935 22.6521638 12.81640625 24.84765625 C12.85830078 25.74677734 12.90019531 26.64589844 12.94335938 27.57226562 C12.98267578 28.51779297 13.02199219 29.46332031 13.0625 30.4375 C13.10568359 31.38689453 13.14886719 32.33628906 13.19335938 33.31445312 C13.29979276 35.66781353 13.40181008 38.02128354 13.5 40.375 C15.48 40.375 17.46 40.375 19.5 40.375 C19.61689626 37.00029496 19.68747934 33.6261157 19.75 30.25 C19.78351562 29.29867188 19.81703125 28.34734375 19.8515625 27.3671875 C19.93496914 21.36190976 19.53419785 17.93214942 15.5 13.375 C12.39951072 11.82475536 9.92105782 12.08507985 6.5 12.375 C3.80860785 14.16926143 1.77765827 16.09734173 -0.5 18.375 C-1.11875 17.570625 -1.7375 16.76625 -2.375 15.9375 C-5.03052445 12.73524992 -5.68511489 12.46725114 -9.8125 12 C-13.64206494 12.04444541 -13.64206494 12.04444541 -16.375 14.75 Z " fill="#0397D5" transform="translate(33.5,-0.375)"/>
</svg>
